<svg width="121" height="27" viewBox="0 0 121 27" fill="none" xmlns="http://www.w3.org/2000/svg">
<path d="M8.37 21.24C4.32 21.24 1.29 18.27 1.29 13.74C1.29 9.33 4.32 6.15 8.34 6.15C10.2 6.15 11.82 6.84 12.87 8.16L12.93 8.13V6.36H16.29V21H13.08V19.08L13.02 19.05C11.97 20.46 10.41 21.24 8.37 21.24ZM8.91 18.18C11.19 18.18 13.08 16.41 13.08 13.77C13.08 11.16 11.31 9.18 8.91 9.18C6.57 9.18 4.71 10.95 4.71 13.77C4.71 16.35 6.42 18.18 8.91 18.18ZM26.7098 21.24C22.6598 21.24 19.6298 18.27 19.6298 13.74C19.6298 9.33 22.6598 6.15 26.6798 6.15C28.5398 6.15 30.1598 6.84 31.2098 8.16L31.2698 8.13V6.36H34.6298V21H31.4198V19.08L31.3598 19.05C30.3098 20.46 28.7498 21.24 26.7098 21.24ZM27.2498 18.18C29.5298 18.18 31.4198 16.41 31.4198 13.77C31.4198 11.16 29.6498 9.18 27.2498 9.18C24.9098 9.18 23.0498 10.95 23.0498 13.77C23.0498 16.35 24.7598 18.18 27.2498 18.18ZM38.8697 21V6.36H42.2297V8.55H42.2897C43.4297 7.02 45.0497 6.15 46.8197 6.15H47.2397V9.9C46.8497 9.87 46.4597 9.84 46.2197 9.84C43.6697 9.84 42.2297 11.67 42.2297 14.07V21H38.8697ZM54.3818 21.24C51.8618 21.24 50.3018 19.65 50.3018 16.38V9.21H48.5018V6.36H50.3018V1.5L53.6618 1.14V6.36H57.9518V9.21H53.6618V16.05C53.6618 17.55 54.1118 18.09 55.0718 18.09C55.6418 18.09 56.4518 17.88 57.2318 17.46L58.1018 20.37C57.2318 20.85 56.3018 21.24 54.3818 21.24ZM73.6657 13.5C73.6657 14.04 73.6057 14.55 73.5757 14.79H62.8957C63.3157 16.92 64.9057 18.18 67.1857 18.18C68.9257 18.18 70.1257 17.4 70.8757 16.47L73.2157 18.48C71.9857 20.07 70.1557 21.24 67.0057 21.24C62.5657 21.24 59.4157 18.27 59.4157 13.68C59.4157 9.18 62.4757 6.15 66.7657 6.15C70.8757 6.15 73.6657 9.24 73.6657 13.5ZM66.7357 9.18C64.8757 9.18 63.4357 10.23 62.9557 12.15H70.2757C69.8557 10.38 68.6557 9.18 66.7357 9.18ZM77.1314 21V6.36H80.4914V8.37H80.5214C81.7214 6.93 83.4014 6.15 85.0814 6.15C87.0614 6.15 88.5914 6.93 89.4614 8.58H89.5214C90.7514 6.99 92.6114 6.15 94.7714 6.15C97.9814 6.15 99.9014 8.16 99.9014 12.54V21H96.5414V13.38C96.5414 10.74 95.6714 9.18 93.6914 9.18C91.8014 9.18 90.2714 10.83 90.2714 13.71V21H86.9114V13.38C86.9114 10.74 85.9814 9.18 84.0014 9.18C81.9914 9.18 80.4914 10.83 80.4914 13.71V21H77.1314ZM110.235 21.24C106.185 21.24 103.155 18.27 103.155 13.74C103.155 9.33 106.185 6.15 110.205 6.15C112.065 6.15 113.685 6.84 114.735 8.16L114.795 8.13V6.36H118.155V21H114.945V19.08L114.885 19.05C113.835 20.46 112.275 21.24 110.235 21.24ZM110.775 18.18C113.055 18.18 114.945 16.41 114.945 13.77C114.945 11.16 113.175 9.18 110.775 9.18C108.435 9.18 106.575 10.95 106.575 13.77C106.575 16.35 108.285 18.18 110.775 18.18Z" fill="black"/>
<path d="M3.28223 26H117.718" stroke="black" stroke-width="2" stroke-linecap="round"/>
</svg>
